<?xml version="1.0" encoding="UTF-8" standalone="no"?>
<!DOCTYPE svg PUBLIC "-//W3C//DTD SVG 1.1//EN" "http://www.w3.org/Graphics/SVG/1.1/DTD/svg11.dtd">
<svg width="100%" height="100%" viewBox="0 0 3300 2200" version="1.1" xmlns="http://www.w3.org/2000/svg" xmlns:xlink="http://www.w3.org/1999/xlink" xml:space="preserve" xmlns:serif="http://www.serif.com/" style="fill-rule:evenodd;clip-rule:evenodd;">
    <g id="Notes">
        <g id="artboard" transform="matrix(1,0,0,1,278.259,280.08)">
            <rect x="0" y="0" width="3300" height="2200" style="fill:white;"/>
        </g>
        <path d="M263,292L3036,292" style="fill:none;fill-rule:nonzero;stroke:black;stroke-width:0.5px;"/>
        <g transform="matrix(1,0,0,1,263,322)">
            <g>
                <text x="0px" y="0px" style="font-family:'SFProDisplay-Regular', 'SF Pro Display';font-size:16px;">W</text>
                <g transform="matrix(1,0,0,1,13.922,0)">
                    <text x="0px" y="0px" style="font-family:'SFProDisplay-Regular', 'SF Pro Display';font-size:16px;">eight/Scale V</text>
                </g>
                <g transform="matrix(1,0,0,1,101.313,0)">
                    <text x="0px" y="0px" style="font-family:'SFProDisplay-Regular', 'SF Pro Display';font-size:16px;">ariations</text>
                </g>
            </g>
        </g>
        <g transform="matrix(1,0,0,1,559.711,322)">
            <g>
                <g transform="matrix(1,0,0,1,-30.41,0)">
                    <text x="0px" y="0px" style="font-family:'SFProDisplay-Regular', 'SF Pro Display';font-size:16px;">Ultr</text>
                </g>
                <g transform="matrix(1,0,0,1,-6.41,0)">
                    <text x="0px" y="0px" style="font-family:'SFProDisplay-Regular', 'SF Pro Display';font-size:16px;">alight</text>
                </g>
            </g>
        </g>
        <g transform="matrix(1,0,0,1,841.598,322)">
            <text x="0px" y="0px" style="font-family:'SFProDisplay-Regular', 'SF Pro Display';font-size:16px;">Thin</text>
        </g>
        <g transform="matrix(1,0,0,1,1136.17,322)">
            <text x="0px" y="0px" style="font-family:'SFProDisplay-Regular', 'SF Pro Display';font-size:16px;">Light</text>
        </g>
        <g transform="matrix(1,0,0,1,1424.23,322)">
            <text x="0px" y="0px" style="font-family:'SFProDisplay-Regular', 'SF Pro Display';font-size:16px;">Regular</text>
        </g>
        <g transform="matrix(1,0,0,1,1719.1,322)">
            <text x="0px" y="0px" style="font-family:'SFProDisplay-Regular', 'SF Pro Display';font-size:16px;">Medium</text>
        </g>
        <g transform="matrix(1,0,0,1,2011.61,322)">
            <text x="0px" y="0px" style="font-family:'SFProDisplay-Regular', 'SF Pro Display';font-size:16px;">Semibold</text>
        </g>
        <g transform="matrix(1,0,0,1,2324.84,322)">
            <text x="0px" y="0px" style="font-family:'SFProDisplay-Regular', 'SF Pro Display';font-size:16px;">Bold</text>
        </g>
        <g transform="matrix(1,0,0,1,2615.23,322)">
            <text x="0px" y="0px" style="font-family:'SFProDisplay-Regular', 'SF Pro Display';font-size:16px;">Heavy</text>
        </g>
        <g transform="matrix(1,0,0,1,2915.03,322)">
            <text x="0px" y="0px" style="font-family:'SFProDisplay-Regular', 'SF Pro Display';font-size:16px;">Black</text>
        </g>
        <path d="M263,1903L3036,1903" style="fill:none;fill-rule:nonzero;stroke:black;stroke-width:0.5px;"/>
        <g transform="matrix(1,0,0,1,263,1933)">
            <path d="M9.248,0.83C13.555,0.83 17.139,-2.744 17.139,-7.051C17.139,-11.357 13.545,-14.932 9.238,-14.932C4.941,-14.932 1.367,-11.357 1.367,-7.051C1.367,-2.744 4.951,0.83 9.248,0.83ZM9.248,-0.654C5.703,-0.654 2.871,-3.496 2.871,-7.051C2.871,-10.605 5.693,-13.447 9.238,-13.447C12.793,-13.447 15.635,-10.605 15.645,-7.051C15.654,-3.496 12.803,-0.654 9.248,-0.654ZM9.229,-3.623C9.697,-3.623 9.971,-3.936 9.971,-4.453L9.971,-6.318L12.002,-6.318C12.5,-6.318 12.832,-6.572 12.832,-7.041C12.832,-7.52 12.52,-7.783 12.002,-7.783L9.971,-7.783L9.971,-9.814C9.971,-10.332 9.697,-10.654 9.229,-10.654C8.76,-10.654 8.506,-10.313 8.506,-9.814L8.506,-7.783L6.494,-7.783C5.977,-7.783 5.645,-7.52 5.645,-7.041C5.645,-6.572 5.996,-6.318 6.494,-6.318L8.506,-6.318L8.506,-4.453C8.506,-3.955 8.76,-3.623 9.229,-3.623Z" style="fill-rule:nonzero;"/>
        </g>
        <g transform="matrix(1,0,0,1,281.506,1933)">
            <path d="M11.709,2.91C17.158,2.91 21.67,-1.611 21.67,-7.051C21.67,-12.5 17.148,-17.012 11.699,-17.012C6.26,-17.012 1.748,-12.5 1.748,-7.051C1.748,-1.611 6.27,2.91 11.709,2.91ZM11.709,1.25C7.1,1.25 3.418,-2.441 3.418,-7.051C3.418,-11.66 7.09,-15.352 11.699,-15.352C16.309,-15.352 20,-11.66 20.01,-7.051C20.02,-2.441 16.318,1.25 11.709,1.25ZM11.68,-2.666C12.207,-2.666 12.51,-3.018 12.51,-3.594L12.51,-6.23L15.322,-6.23C15.869,-6.23 16.25,-6.514 16.25,-7.031C16.25,-7.559 15.889,-7.861 15.322,-7.861L12.51,-7.861L12.51,-10.684C12.51,-11.25 12.207,-11.611 11.68,-11.611C11.162,-11.611 10.879,-11.23 10.879,-10.684L10.879,-7.861L8.076,-7.861C7.51,-7.861 7.139,-7.559 7.139,-7.031C7.139,-6.514 7.529,-6.23 8.076,-6.23L10.879,-6.23L10.879,-3.594C10.879,-3.037 11.162,-2.666 11.68,-2.666Z" style="fill-rule:nonzero;"/>
        </g>
        <g transform="matrix(1,0,0,1,304.924,1933)">
            <path d="M14.971,5.664C21.934,5.664 27.695,-0.098 27.695,-7.051C27.695,-14.014 21.924,-19.775 14.961,-19.775C8.008,-19.775 2.256,-14.014 2.256,-7.051C2.256,-0.098 8.018,5.664 14.971,5.664ZM14.971,3.848C8.936,3.848 4.082,-1.016 4.082,-7.051C4.082,-13.096 8.926,-17.949 14.961,-17.949C21.006,-17.949 25.859,-13.096 25.869,-7.051C25.879,-1.016 21.016,3.848 14.971,3.848ZM14.941,-1.387C15.518,-1.387 15.859,-1.777 15.859,-2.383L15.859,-6.133L19.775,-6.133C20.371,-6.133 20.781,-6.465 20.781,-7.021C20.781,-7.598 20.391,-7.939 19.775,-7.939L15.859,-7.939L15.859,-11.865C15.859,-12.48 15.518,-12.871 14.941,-12.871C14.375,-12.871 14.053,-12.461 14.053,-11.865L14.053,-7.939L10.147,-7.939C9.531,-7.939 9.131,-7.598 9.131,-7.021C9.131,-6.465 9.551,-6.133 10.147,-6.133L14.053,-6.133L14.053,-2.383C14.053,-1.797 14.375,-1.387 14.941,-1.387Z" style="fill-rule:nonzero;"/>
        </g>
        <g transform="matrix(1,0,0,1,263,1953)">
            <g>
                <text x="0px" y="0px" style="font-family:'SFProDisplay-Regular', 'SF Pro Display';font-size:16px;">Design V</text>
                <g transform="matrix(1,0,0,1,59.211,0)">
                    <text x="0px" y="0px" style="font-family:'SFProDisplay-Regular', 'SF Pro Display';font-size:16px;">ariations</text>
                </g>
            </g>
        </g>
        <g transform="matrix(1,0,0,1,263,1971)">
            <g>
                <text x="0px" y="0px" style="font-family:'SFProDisplay-Regular', 'SF Pro Display';font-size:16px;">Symbols ar</text>
                <g transform="matrix(1,0,0,1,74.039,0)">
                    <text x="0px" y="0px" style="font-family:'SFProDisplay-Regular', 'SF Pro Display';font-size:16px;">e support</text>
                </g>
                <g transform="matrix(1,0,0,1,136.977,0)">
                    <text x="0px" y="0px" style="font-family:'SFProDisplay-Regular', 'SF Pro Display';font-size:16px;">ed in up t</text>
                </g>
                <g transform="matrix(1,0,0,1,197.406,0)">
                    <text x="0px" y="0px" style="font-family:'SFProDisplay-Regular', 'SF Pro Display';font-size:16px;">o nine weights and thr</text>
                </g>
                <g transform="matrix(1,0,0,1,343.289,0)">
                    <text x="0px" y="0px" style="font-family:'SFProDisplay-Regular', 'SF Pro Display';font-size:16px;">ee scales.</text>
                </g>
            </g>
        </g>
        <g transform="matrix(1,0,0,1,263,1989)">
            <g>
                <text x="0px" y="0px" style="font-family:'SFProDisplay-Regular', 'SF Pro Display';font-size:16px;">F</text>
                <g transform="matrix(1,0,0,1,8.133,0)">
                    <text x="0px" y="0px" style="font-family:'SFProDisplay-Regular', 'SF Pro Display';font-size:16px;">or optimal lay</text>
                </g>
                <g transform="matrix(1,0,0,1,96.43,0)">
                    <text x="0px" y="0px" style="font-family:'SFProDisplay-Regular', 'SF Pro Display';font-size:16px;">out with t</text>
                </g>
                <g transform="matrix(1,0,0,1,157.508,0)">
                    <g>
                        <text x="0px" y="0px" style="font-family:'SFProDisplay-Regular', 'SF Pro Display';font-size:16px;">e</text>
                        <g transform="matrix(1,0,0,1,8.039,0)">
                            <text x="0px" y="0px" style="font-family:'SFProDisplay-Regular', 'SF Pro Display';font-size:16px;">xt and other symbols,</text>
                        </g>
                    </g>
                </g>
                <g transform="matrix(1,0,0,1,306.883,0)">
                    <g>
                        <text x="0px" y="0px" style="font-family:'SFProDisplay-Regular', 'SF Pro Display';font-size:16px;">v</text>
                        <g transform="matrix(1,0,0,1,7.414,0)">
                            <text x="0px" y="0px" style="font-family:'SFProDisplay-Regular', 'SF Pro Display';font-size:16px;">ertically align</text>
                        </g>
                    </g>
                </g>
            </g>
        </g>
        <g transform="matrix(1,0,0,1,263,2007)">
            <g>
                <text x="0px" y="0px" style="font-family:'SFProDisplay-Regular', 'SF Pro Display';font-size:16px;">symbols with the adjacent t</text>
                <g transform="matrix(1,0,0,1,181.344,0)">
                    <g>
                        <text x="0px" y="0px" style="font-family:'SFProDisplay-Regular', 'SF Pro Display';font-size:16px;">e</text>
                        <g transform="matrix(1,0,0,1,8.039,0)">
                            <text x="0px" y="0px" style="font-family:'SFProDisplay-Regular', 'SF Pro Display';font-size:16px;">xt.</text>
                        </g>
                    </g>
                </g>
            </g>
        </g>
        <path d="M776,1919L776,1933" style="fill:none;fill-rule:nonzero;stroke:rgb(0,174,239);stroke-width:0.5px;"/>
        <g transform="matrix(1,0,0,1,776,1933)">
            <path d="M3.311,0.127C3.828,0.127 4.082,-0.068 4.268,-0.605L5.527,-4.063L11.289,-4.063L12.549,-0.605C12.734,-0.068 12.988,0.127 13.496,0.127C14.014,0.127 14.346,-0.186 14.346,-0.674C14.346,-0.84 14.316,-0.986 14.238,-1.201L9.658,-13.389C9.434,-13.994 9.033,-14.287 8.408,-14.287C7.803,-14.287 7.393,-13.994 7.178,-13.398L2.598,-1.191C2.52,-0.977 2.49,-0.83 2.49,-0.664C2.49,-0.176 2.803,0.127 3.311,0.127ZM6.006,-5.537L8.379,-12.109L8.428,-12.109L10.801,-5.537L6.006,-5.537Z" style="fill-rule:nonzero;"/>
        </g>
        <path d="M792.836,1919L792.836,1933" style="fill:none;fill-rule:nonzero;stroke:rgb(0,174,239);stroke-width:0.5px;"/>
        <g transform="matrix(1,0,0,1,776,1953)">
            <g>
                <text x="0px" y="0px" style="font-family:'SFProDisplay-Regular', 'SF Pro Display';font-size:16px;">M</text>
                <g transform="matrix(1,0,0,1,13.063,0)">
                    <g>
                        <text x="0px" y="0px" style="font-family:'SFProDisplay-Regular', 'SF Pro Display';font-size:16px;">ar</text>
                        <g transform="matrix(1,0,0,1,12.57,0)">
                            <text x="0px" y="0px" style="font-family:'SFProDisplay-Regular', 'SF Pro Display';font-size:16px;">gins</text>
                        </g>
                    </g>
                </g>
            </g>
        </g>
        <g transform="matrix(1,0,0,1,776,1971)">
            <g>
                <text x="0px" y="0px" style="font-family:'SFProDisplay-Regular', 'SF Pro Display';font-size:16px;">L</text>
                <g transform="matrix(1,0,0,1,8.156,0)">
                    <text x="0px" y="0px" style="font-family:'SFProDisplay-Regular', 'SF Pro Display';font-size:16px;">eading and tr</text>
                </g>
                <g transform="matrix(1,0,0,1,95.227,0)">
                    <text x="0px" y="0px" style="font-family:'SFProDisplay-Regular', 'SF Pro Display';font-size:16px;">ailing mar</text>
                </g>
                <g transform="matrix(1,0,0,1,159.031,0)">
                    <text x="0px" y="0px" style="font-family:'SFProDisplay-Regular', 'SF Pro Display';font-size:16px;">gins on the left and right side of each symbol</text>
                </g>
            </g>
        </g>
        <g transform="matrix(1,0,0,1,776,1989)">
            <g>
                <text x="0px" y="0px" style="font-family:'SFProDisplay-Regular', 'SF Pro Display';font-size:16px;">can be adjust</text>
                <g transform="matrix(1,0,0,1,88.727,0)">
                    <text x="0px" y="0px" style="font-family:'SFProDisplay-Regular', 'SF Pro Display';font-size:16px;">ed b</text>
                </g>
                <g transform="matrix(1,0,0,1,117.609,0)">
                    <text x="0px" y="0px" style="font-family:'SFProDisplay-Regular', 'SF Pro Display';font-size:16px;">y modifying the x</text>
                </g>
                <g transform="matrix(1,0,0,1,230.703,0)">
                    <text x="0px" y="0px" style="font-family:'SFProDisplay-Regular', 'SF Pro Display';font-size:16px;">-location of the mar</text>
                </g>
                <g transform="matrix(1,0,0,1,360.664,0)">
                    <text x="0px" y="0px" style="font-family:'SFProDisplay-Regular', 'SF Pro Display';font-size:16px;">gin guidelines.</text>
                </g>
            </g>
        </g>
        <g transform="matrix(1,0,0,1,776,2007)">
            <g>
                <text x="0px" y="0px" style="font-family:'SFProDisplay-Regular', 'SF Pro Display';font-size:16px;">Modifications ar</text>
                <g transform="matrix(1,0,0,1,106.484,0)">
                    <text x="0px" y="0px" style="font-family:'SFProDisplay-Regular', 'SF Pro Display';font-size:16px;">e aut</text>
                </g>
                <g transform="matrix(1,0,0,1,139.008,0)">
                    <text x="0px" y="0px" style="font-family:'SFProDisplay-Regular', 'SF Pro Display';font-size:16px;">omatically applied pr</text>
                </g>
                <g transform="matrix(1,0,0,1,275.977,0)">
                    <text x="0px" y="0px" style="font-family:'SFProDisplay-Regular', 'SF Pro Display';font-size:16px;">oportionally t</text>
                </g>
                <g transform="matrix(1,0,0,1,361.93,0)">
                    <text x="0px" y="0px" style="font-family:'SFProDisplay-Regular', 'SF Pro Display';font-size:16px;">o all</text>
                </g>
            </g>
        </g>
        <g transform="matrix(1,0,0,1,776,2025)">
            <text x="0px" y="0px" style="font-family:'SFProDisplay-Regular', 'SF Pro Display';font-size:16px;">scales and weights.</text>
        </g>
        <g transform="matrix(1,0,0,1,1289,1933)">
            <path d="M2.842,1.865L4.541,3.574C5.4,4.443 6.387,4.385 7.314,3.359L17.49,-7.852C17.754,-7.764 18.027,-7.783 18.34,-7.842L19.404,-8.037L20.068,-7.363L20.029,-6.807C19.99,-6.309 20.117,-5.928 20.606,-5.449L21.367,-4.707C21.846,-4.229 22.461,-4.199 22.93,-4.668L25.84,-7.588C26.309,-8.057 26.289,-8.652 25.811,-9.131L25.039,-9.893C24.561,-10.371 24.19,-10.527 23.711,-10.488L23.135,-10.44L22.49,-11.074L22.734,-12.197C22.861,-12.764 22.705,-13.203 22.119,-13.789L19.922,-15.977C16.582,-19.297 12.148,-19.219 9.258,-16.328C8.838,-15.918 8.809,-15.342 9.043,-14.951C9.277,-14.59 9.736,-14.355 10.381,-14.522C11.846,-14.863 13.369,-14.922 14.795,-13.984L14.209,-12.529C14.014,-12.051 13.984,-11.65 14.111,-11.289L3.047,-0.898C2.061,0.02 1.982,0.996 2.842,1.865ZM10.752,-15.957C13.184,-17.734 16.475,-17.432 18.701,-15.205L21.133,-12.793C21.367,-12.559 21.406,-12.373 21.338,-12.031L21.016,-10.547L22.52,-9.063L23.506,-9.121C23.76,-9.131 23.838,-9.111 24.033,-8.916L24.609,-8.34L22.168,-5.898L21.592,-6.475C21.397,-6.67 21.367,-6.748 21.377,-7.012L21.445,-7.988L19.951,-9.473L18.428,-9.219C18.106,-9.15 17.959,-9.18 17.715,-9.414L15.713,-11.416C15.459,-11.65 15.43,-11.816 15.586,-12.188L16.465,-14.277C14.902,-15.732 12.871,-16.357 10.84,-15.762C10.684,-15.723 10.625,-15.85 10.752,-15.957ZM5.273,2.305L4.102,1.143C3.633,0.684 3.74,0.342 4.141,-0.02L14.951,-10.195L16.416,-8.711L6.426,2.275C6.074,2.676 5.742,2.773 5.273,2.305Z" style="fill-rule:nonzero;"/>
        </g>
        <g transform="matrix(1,0,0,1,1289,1953)">
            <text x="0px" y="0px" style="font-family:'SFProDisplay-Regular', 'SF Pro Display';font-size:16px;">Exporting</text>
        </g>
        <g transform="matrix(1,0,0,1,1289,1971)">
            <g>
                <text x="0px" y="0px" style="font-family:'SFProDisplay-Regular', 'SF Pro Display';font-size:16px;">Symbols should be outlined when e</text>
                <g transform="matrix(1,0,0,1,235.289,0)">
                    <text x="0px" y="0px" style="font-family:'SFProDisplay-Regular', 'SF Pro Display';font-size:16px;">xporting t</text>
                </g>
                <g transform="matrix(1,0,0,1,298.188,0)">
                    <text x="0px" y="0px" style="font-family:'SFProDisplay-Regular', 'SF Pro Display';font-size:16px;">o ensur</text>
                </g>
                <g transform="matrix(1,0,0,1,347,0)">
                    <text x="0px" y="0px" style="font-family:'SFProDisplay-Regular', 'SF Pro Display';font-size:16px;">e the</text>
                </g>
            </g>
        </g>
        <g transform="matrix(1,0,0,1,1289,1989)">
            <g>
                <text x="0px" y="0px" style="font-family:'SFProDisplay-Regular', 'SF Pro Display';font-size:16px;">design is pr</text>
                <g transform="matrix(1,0,0,1,75.641,0)">
                    <text x="0px" y="0px" style="font-family:'SFProDisplay-Regular', 'SF Pro Display';font-size:16px;">eserv</text>
                </g>
                <g transform="matrix(1,0,0,1,111.82,0)">
                    <text x="0px" y="0px" style="font-family:'SFProDisplay-Regular', 'SF Pro Display';font-size:16px;">ed when submitting t</text>
                </g>
                <g transform="matrix(1,0,0,1,251.031,0)">
                    <text x="0px" y="0px" style="font-family:'SFProDisplay-Regular', 'SF Pro Display';font-size:16px;">o X</text>
                </g>
                <g transform="matrix(1,0,0,1,272.414,0)">
                    <text x="0px" y="0px" style="font-family:'SFProDisplay-Regular', 'SF Pro Display';font-size:16px;">code.</text>
                </g>
            </g>
        </g>
        <g id="template-version" transform="matrix(1,0,0,1,3036,1933)">
            <g>
                <g transform="matrix(1,0,0,1,-96.57,0)">
                    <text x="0px" y="0px" style="font-family:'SFProDisplay-Regular', 'SF Pro Display';font-size:16px;">T</text>
                </g>
                <g transform="matrix(1,0,0,1,-89.383,0)">
                    <text x="0px" y="0px" style="font-family:'SFProDisplay-Regular', 'SF Pro Display';font-size:16px;">emplat</text>
                </g>
                <g transform="matrix(1,0,0,1,-43.664,0)">
                    <text x="0px" y="0px" style="font-family:'SFProDisplay-Regular', 'SF Pro Display';font-size:16px;">e v</text>
                </g>
                <g transform="matrix(1,0,0,1,-25.633,0)">
                    <text x="0px" y="0px" style="font-family:'SFProDisplay-Regular', 'SF Pro Display';font-size:16px;">.2.0</text>
                </g>
            </g>
        </g>
        <g transform="matrix(1,0,0,1,3036,1951)">
            <g>
                <g transform="matrix(1,0,0,1,-191.594,0)">
                    <text x="0px" y="0px" style="font-family:'SFProDisplay-Regular', 'SF Pro Display';font-size:16px;">Requir</text>
                </g>
                <g transform="matrix(1,0,0,1,-148.766,0)">
                    <text x="0px" y="0px" style="font-family:'SFProDisplay-Regular', 'SF Pro Display';font-size:16px;">es X</text>
                </g>
                <g transform="matrix(1,0,0,1,-120.234,0)">
                    <text x="0px" y="0px" style="font-family:'SFProDisplay-Regular', 'SF Pro Display';font-size:16px;">code 12 or gr</text>
                </g>
                <g transform="matrix(1,0,0,1,-33.938,0)">
                    <text x="0px" y="0px" style="font-family:'SFProDisplay-Regular', 'SF Pro Display';font-size:16px;">eat</text>
                </g>
                <g transform="matrix(1,0,0,1,-13.125,0)">
                    <text x="0px" y="0px" style="font-family:'SFProDisplay-Regular', 'SF Pro Display';font-size:16px;">er</text>
                </g>
            </g>
        </g>
        <g transform="matrix(1,0,0,1,3036,1969)">
            <g>
                <g transform="matrix(1,0,0,1,-181.055,0)">
                    <text x="0px" y="0px" style="font-family:'SFProDisplay-Regular', 'SF Pro Display';font-size:16px;">Gener</text>
                </g>
                <g transform="matrix(1,0,0,1,-140.156,0)">
                    <g>
                        <text x="0px" y="0px" style="font-family:'SFProDisplay-Regular', 'SF Pro Display';font-size:16px;">at</text>
                        <g transform="matrix(1,0,0,1,12.617,0)">
                            <text x="0px" y="0px" style="font-family:'SFProDisplay-Regular', 'SF Pro Display';font-size:16px;">ed fr</text>
                        </g>
                    </g>
                </g>
                <g transform="matrix(1,0,0,1,-97.805,0)">
                    <text x="0px" y="0px" style="font-family:'SFProDisplay-Regular', 'SF Pro Display';font-size:16px;">om music.not</text>
                </g>
                <g transform="matrix(1,0,0,1,-8.195,0)">
                    <text x="0px" y="0px" style="font-family:'SFProDisplay-Regular', 'SF Pro Display';font-size:16px;">e</text>
                </g>
            </g>
        </g>
        <g transform="matrix(1,0,0,1,3036,1987)">
            <g>
                <g transform="matrix(1,0,0,1,-143.117,0)">
                    <text x="0px" y="0px" style="font-family:'SFProDisplay-Regular', 'SF Pro Display';font-size:16px;">T</text>
                </g>
                <g transform="matrix(1,0,0,1,-135.695,0)">
                    <text x="0px" y="0px" style="font-family:'SFProDisplay-Regular', 'SF Pro Display';font-size:16px;">ypeset at 100 points</text>
                </g>
            </g>
        </g>
        <g transform="matrix(1,0,0,1,263,726)">
            <text x="0px" y="0px" style="font-family:'SFProDisplay-Regular', 'SF Pro Display';font-size:16px;">Small</text>
        </g>
        <g transform="matrix(1,0,0,1,263,1156)">
            <text x="0px" y="0px" style="font-family:'SFProDisplay-Regular', 'SF Pro Display';font-size:16px;">Medium</text>
        </g>
        <g transform="matrix(1,0,0,1,263,1586)">
            <g>
                <text x="0px" y="0px" style="font-family:'SFProDisplay-Regular', 'SF Pro Display';font-size:16px;">Lar</text>
                <g transform="matrix(1,0,0,1,20.961,0)">
                    <text x="0px" y="0px" style="font-family:'SFProDisplay-Regular', 'SF Pro Display';font-size:16px;">ge</text>
                </g>
            </g>
        </g>
    </g>
    <g id="Guides">
        <g id="H-reference" transform="matrix(1,0,0,1,339,696)">
            <path d="M0.977,0L3.662,0L12.988,-24.463L45.752,-24.463L55.127,0L57.764,0L30.615,-70.459L28.125,-70.459L0.977,0ZM29.346,-67.139L29.443,-67.139L44.873,-26.709L13.867,-26.709L29.346,-67.139Z" style="fill:rgb(39,170,225);fill-rule:nonzero;"/>
        </g>
        <path id="Baseline-S" d="M263,696L3036,696" style="fill:none;fill-rule:nonzero;stroke:rgb(39,170,225);stroke-width:0.5px;"/>
        <path id="Capline-S" d="M263,625.541L3036,625.541" style="fill:none;fill-rule:nonzero;stroke:rgb(39,170,225);stroke-width:0.5px;"/>
        <g id="H-reference1" serif:id="H-reference" transform="matrix(1,0,0,1,339,1126)">
            <path d="M0.977,0L3.662,0L12.988,-24.463L45.752,-24.463L55.127,0L57.764,0L30.615,-70.459L28.125,-70.459L0.977,0ZM29.346,-67.139L29.443,-67.139L44.873,-26.709L13.867,-26.709L29.346,-67.139Z" style="fill:rgb(39,170,225);fill-rule:nonzero;"/>
        </g>
        <path id="Baseline-M" d="M263,1126L3036,1126" style="fill:none;fill-rule:nonzero;stroke:rgb(39,170,225);stroke-width:0.5px;"/>
        <path id="Capline-M" d="M263,1055.54L3036,1055.54" style="fill:none;fill-rule:nonzero;stroke:rgb(39,170,225);stroke-width:0.5px;"/>
        <g id="H-reference2" serif:id="H-reference" transform="matrix(1,0,0,1,339,1556)">
            <path d="M0.977,0L3.662,0L12.988,-24.463L45.752,-24.463L55.127,0L57.764,0L30.615,-70.459L28.125,-70.459L0.977,0ZM29.346,-67.139L29.443,-67.139L44.873,-26.709L13.867,-26.709L29.346,-67.139Z" style="fill:rgb(39,170,225);fill-rule:nonzero;"/>
        </g>
        <path id="Baseline-L" d="M263,1556L3036,1556" style="fill:none;fill-rule:nonzero;stroke:rgb(39,170,225);stroke-width:0.5px;"/>
        <path id="Capline-L" d="M263,1485.54L3036,1485.54" style="fill:none;fill-rule:nonzero;stroke:rgb(39,170,225);stroke-width:0.5px;"/>
        <path id="left-margin" d="M1407.61,1030.79L1407.61,1150.12" style="fill:none;fill-rule:nonzero;stroke:rgb(0,174,239);stroke-width:0.5px;"/>
        <path id="right-margin" d="M1492.08,1030.79L1492.08,1150.12" style="fill:none;fill-rule:nonzero;stroke:rgb(0,174,239);stroke-width:0.5px;"/>
    </g>
    <g id="Symbols">
        <g id="Regular-M">
            <path d="M1486.87,1124.45C1486.87,1124.48 1486.86,1124.5 1486.86,1124.53C1486.84,1127.59 1485.25,1130.45 1482.1,1133.12C1478.88,1135.8 1475.43,1137.15 1471.76,1137.15C1469.61,1137.15 1467.8,1136.59 1466.32,1135.47C1464.94,1134.26 1464.24,1132.74 1464.24,1130.9C1464.24,1127.82 1465.85,1124.93 1469.08,1122.25C1472.21,1119.56 1475.63,1118.22 1479.35,1118.22C1481.42,1118.22 1483.18,1118.74 1484.63,1119.78L1484.63,1086.72L1459.95,1086.72L1459.95,1124.45C1459.95,1124.48 1459.95,1124.51 1459.94,1124.53C1459.92,1127.59 1458.33,1130.45 1455.18,1133.12C1451.96,1135.8 1448.51,1137.15 1444.84,1137.15C1442.69,1137.15 1440.88,1136.59 1439.4,1135.47C1438.02,1134.26 1437.32,1132.74 1437.32,1130.9C1437.32,1127.82 1438.93,1124.93 1442.16,1122.25C1445.29,1119.56 1448.71,1118.22 1452.43,1118.22C1454.5,1118.22 1456.26,1118.74 1457.71,1119.79L1457.71,1086.72L1433.03,1086.72L1433.03,1124.52C1433.01,1127.59 1431.42,1130.45 1428.26,1133.12C1425.04,1135.8 1421.59,1137.15 1417.92,1137.15C1415.78,1137.15 1413.96,1136.59 1412.49,1135.47C1411.1,1134.26 1410.41,1132.74 1410.41,1130.9C1410.41,1127.82 1412.02,1124.93 1415.24,1122.25C1418.37,1119.56 1421.8,1118.22 1425.51,1118.22C1427.58,1118.22 1429.35,1118.74 1430.8,1119.78L1430.8,1078.13L1486.87,1078.13L1486.87,1124.45ZM1455.96,1066.07C1459.78,1065.45 1461.69,1064.12 1461.69,1062.1C1461.69,1061.44 1461.5,1060.91 1461.1,1060.51C1460.71,1060.12 1460.2,1059.91 1459.56,1059.91C1458.58,1059.91 1457.69,1060.45 1456.88,1061.52L1456.49,1061.4C1456.89,1060.63 1457.44,1060.03 1458.13,1059.58C1458.83,1059.13 1459.59,1058.91 1460.42,1058.91C1461.38,1058.91 1462.18,1059.2 1462.82,1059.77C1463.46,1060.35 1463.78,1061.07 1463.78,1061.95C1463.78,1062.77 1463.52,1063.42 1463,1063.92C1462.48,1064.41 1461.49,1064.94 1460.04,1065.5L1460.04,1065.57C1461.57,1066.27 1462.34,1067.46 1462.34,1069.14C1462.34,1070.8 1461.72,1072.24 1460.49,1073.45C1459.26,1074.67 1457.65,1075.27 1455.65,1075.27C1453.87,1075.27 1452.97,1074.8 1452.97,1073.86C1452.97,1073.24 1453.32,1072.92 1454.02,1072.92C1454.42,1072.92 1454.96,1073.16 1455.63,1073.64C1456.3,1074.12 1456.85,1074.36 1457.28,1074.36C1458.14,1074.36 1458.88,1074 1459.5,1073.27C1460.11,1072.55 1460.42,1071.6 1460.42,1070.43C1460.42,1068.93 1460.05,1067.89 1459.3,1067.32C1458.55,1066.74 1457.43,1066.46 1455.96,1066.46L1455.96,1066.07Z" style="fill-rule:nonzero;"/>
        </g>
    </g>
</svg>
